<svg width="360" height="260" fill="none" xmlns="http://www.w3.org/2000/svg"><path fill-rule="evenodd" clip-rule="evenodd" d="M54.652 30.89h1.936a2.863 2.863 0 012.86 2.86v9.622a2.861 2.861 0 01-2.86 2.859H53.95a11.576 11.576 0 01-6.967 6.968v3.095a2.405 2.405 0 01-2.403 2.402h-9.577a2.405 2.405 0 01-2.403-2.402v-2.392h-5.753v2.392a2.405 2.405 0 01-2.403 2.402h-9.576a2.405 2.405 0 01-2.403-2.403v-3.998a11.609 11.609 0 01-5.753-10.038v-6.572H2.877A2.88 2.88 0 010 32.808v-5.753h1.918v3.053c.3-.107.62-.176.958-.176a2.88 2.88 0 012.877 2.876c0 .338-.07.658-.177.959h1.136v-2.738c0-5.7 4.073-10.529 9.684-11.48l.321 1.891a9.694 9.694 0 00-8.088 9.59v11.227a9.701 9.701 0 005.238 8.624l.515.27v5.143c0 .267.218.485.486.485h9.576a.486.486 0 00.486-.485v-4.31h9.588v4.31c0 .267.217.485.485.485h9.577a.486.486 0 00.485-.485v-4.507l.689-.202a9.675 9.675 0 006.582-6.583l.202-.688h4.05c.52 0 .942-.422.942-.941V33.75a.942.942 0 00-.942-.942h-3.852V31.03a9.713 9.713 0 00-4.365-8.112l-.43-.284V16.03a1.44 1.44 0 00-1.438-1.439c-3.266 0-5.994 2.556-6.21 5.817l-.06.895h-4.756v-1.918h3.012c.684-3.828 4.045-6.711 8.014-6.711a3.36 3.36 0 013.356 3.355v5.588a11.618 11.618 0 014.793 9.274zm-51.775.96a.96.96 0 00-.96.958.96.96 0 001.918 0 .96.96 0 00-.958-.959z" fill="#004D61"/><path d="M25.888 26.096c-6.872 0-12.464-5.592-12.464-12.465S19.015 1.167 25.888 1.167 38.353 6.758 38.353 13.63s-5.592 12.465-12.465 12.465z" fill="#64B564"/><path fill="#004D61" d="M18.218 25.137h15.341v1.918H18.218zm13.423-13.423v-1.439a4.32 4.32 0 00-4.314-4.314h-.48V4.043h-1.918V5.96h-.48a4.32 4.32 0 00-4.314 4.314 4.32 4.32 0 004.315 4.315h2.876a2.4 2.4 0 012.397 2.397 2.4 2.4 0 01-2.397 2.397H24.45a2.4 2.4 0 01-2.397-2.397V15.55h-1.918v1.438a4.32 4.32 0 004.315 4.315h.48v1.918h1.917v-1.918h.48a4.32 4.32 0 004.314-4.315 4.32 4.32 0 00-4.314-4.315H24.45a2.4 2.4 0 01-2.397-2.397 2.4 2.4 0 012.397-2.397h2.877a2.4 2.4 0 012.396 2.397v1.439h1.918zM40.12 29.49c.009-.015.97-1.476 3.027-1.476 2.02 0 2.993 1.423 3.028 1.476a.958.958 0 101.615-1.035c-.063-.097-1.55-2.359-4.643-2.359s-4.58 2.262-4.642 2.359a.96.96 0 001.614 1.035z"/><path d="M213.531 21.263a4.833 4.833 0 100-9.666 4.833 4.833 0 000 9.666z" fill="#64B564"/><path fill-rule="evenodd" clip-rule="evenodd" d="M257.023 44.459h-7.732V4.833A4.837 4.837 0 00244.459 0h-39.626A4.838 4.838 0 00200 4.833a4.838 4.838 0 004.833 4.832v50.258h40.592v-5.8h3.866v-3.865h7.732c1.599 0 2.9-1.301 2.9-2.9s-1.301-2.9-2.9-2.9zm-9.665-39.626v39.626h-1.933V7.732h-.966c-1.599 0-2.9-1.3-2.9-2.9 0-1.598 1.301-2.9 2.9-2.9a2.903 2.903 0 012.899 2.9zm-42.525-2.9a2.903 2.903 0 00-2.9 2.9 2.905 2.905 0 002.9 2.9h35.785a4.782 4.782 0 01-.992-2.9c0-1.093.378-2.09.992-2.9h-35.785zm1.933 56.057V9.665h36.727v34.794h-27.219l-8.698 2.9 8.698 2.899h27.218v7.732h-36.726zm8.698-11.224l-1.776.592 1.776.592v-1.184zm31.894 5.425h-1.933v-1.933h1.933v1.933zm-29.961-3.866h31.894v-1.933h-31.894v1.933zm35.76 0h-1.933v-1.933h1.933v1.933zm1.933 0h1.933a.967.967 0 000-1.933h-1.933v1.933zm-37.073-34.052l-1.239-1.484-5.12 4.267-1.31-1.309-1.366 1.367 2.556 2.557 6.479-5.398zm17.743-.742h-14.497v1.933h14.497V13.53zm-14.497 3.866h16.43v1.933h-16.43v-1.933zm-4.485 5.057l1.239 1.484-6.479 5.398-2.556-2.557 1.366-1.367 1.31 1.309 5.12-4.267zm4.485.742h20.296v1.933h-20.296v-1.933zm3.866 3.866h-3.866v1.933h3.866v-1.933zm1.933 0h14.497v1.933h-14.497v-1.933zm-10.284 5.057l1.239 1.484-6.479 5.398-2.556-2.557 1.366-1.367 1.31 1.309 5.12-4.267zm4.485.742h20.296v1.933h-20.296V32.86zm14.497 3.866h-14.497v1.933h14.497v-1.933zm1.933 0h3.866v1.933h-3.866v-1.933zm3.866-23.196h-3.866v1.933h3.866V13.53z" fill="#004D61"/><path d="M24.814 210.085h9.91c0-6.751 2.795-8.833 2.963-8.952l-7.918 2.977-7.919-2.977c.169.119 2.964 2.201 2.964 8.952z" fill="#fff"/><path fill-rule="evenodd" clip-rule="evenodd" d="M36.092 215.722c.242.177.514.308.803.389 10.476 3.165 17.649 12.857 17.65 23.85 0 13.753-11.09 18.921-24.776 18.921-13.687 0-24.777-5.168-24.777-18.921.002-10.993 7.175-20.685 17.65-23.85.29-.081.561-.212.804-.389.42.225.89.341 1.368.339h9.91c.477.002.947-.114 1.368-.339zm-18.216 22.247c0 6.6 5.325 11.95 11.893 11.95 6.568 0 11.893-5.35 11.893-11.95s-5.325-11.95-11.893-11.95c-6.568 0-11.893 5.35-11.893 11.95z" fill="#fff"/><path fill-rule="evenodd" clip-rule="evenodd" d="M30 250c6.627 0 12-5.373 12-12s-5.373-12-12-12-12 5.373-12 12 5.373 12 12 12z" fill="#64B564"/><path fill-rule="evenodd" clip-rule="evenodd" d="M42.653 237.969c0 7.15-5.768 12.946-12.884 12.946-7.112-.008-12.875-5.799-12.884-12.946 0-7.15 5.768-12.946 12.884-12.946 7.116 0 12.884 5.796 12.884 12.946zm-1.982 0c0-6.05-4.882-10.954-10.902-10.954-6.018.007-10.895 4.907-10.902 10.954 0 6.05 4.881 10.955 10.902 10.955 6.02 0 10.902-4.905 10.902-10.955z" fill="#004D61"/><path fill-rule="evenodd" clip-rule="evenodd" d="M27.787 242.948a1.986 1.986 0 01-1.982-1.991h-1.982c0 2.2 1.774 3.983 3.964 3.983h.991v1.992h1.982v-1.992h.991c2.19 0 3.964-1.783 3.964-3.983s-1.775-3.984-3.964-3.984h-.99v-3.983h.99c1.095 0 1.982.892 1.982 1.992h1.982c0-2.2-1.775-3.984-3.964-3.984h-.99v-1.991h-1.983v1.991h-.991c-2.19 0-3.964 1.784-3.964 3.984 0 2.199 1.774 3.983 3.964 3.983h.991v3.983h-.991zm0-5.975a1.986 1.986 0 01-1.982-1.991c0-1.1.887-1.992 1.982-1.992h.991v3.983h-.991zm3.964 1.992h-.99v3.983h.99a1.986 1.986 0 001.982-1.991c0-1.1-.887-1.992-1.982-1.992z" fill="#004D61"/><path fill-rule="evenodd" clip-rule="evenodd" d="M38.689 213.073a3.962 3.962 0 01-.773 2.34c10.487 3.565 17.565 13.425 17.62 24.548 0 12.657-9.392 19.917-25.767 19.917-16.376 0-25.768-7.26-25.768-19.917.057-11.123 7.133-20.983 17.62-24.549a3.831 3.831 0 01-.631-3.335h-2.354a.994.994 0 00-.991.996c0 .55.444.996.991.996v1.992a2.98 2.98 0 01-2.973-2.988 2.98 2.98 0 012.973-2.988h3.58a3.94 3.94 0 011.585-.847c-.216-5.561-2.498-7.279-2.523-7.295a1 1 0 01-.317-1.283.989.989 0 011.228-.47l7.58 2.857 7.58-2.857a.988.988 0 011.234.476.997.997 0 01-.336 1.285v.001c-.045.034-2.295 1.766-2.51 7.286a3.96 3.96 0 012.4 1.843h6.002a1.49 1.49 0 001.487-1.494 1.49 1.49 0 00-1.486-1.493h-.496v-1.992h.495a3.477 3.477 0 013.47 3.485 3.477 3.477 0 01-3.47 3.486h-5.45zm-8.575-8.03a.997.997 0 01-.694 0l-4.89-1.844a15.835 15.835 0 011.25 5.891h2.998v-1.992h1.982v1.992h2.997a15.831 15.831 0 011.248-5.891l-4.891 1.844zm-5.3 6.038h9.91c1.095 0 1.983.892 1.983 1.992s-.888 1.992-1.983 1.992h-9.91a1.987 1.987 0 01-1.982-1.992c0-1.1.887-1.992 1.982-1.992zm-18.83 28.88c0 15.597 14.902 17.925 23.785 17.925 8.883 0 23.786-2.328 23.786-17.925-.048-10.538-6.916-19.817-16.945-22.896a4.19 4.19 0 01-.578-.248 3.92 3.92 0 01-1.308.239h-9.91a3.893 3.893 0 01-1.308-.239 3.947 3.947 0 01-.581.248c-10.029 3.08-16.894 12.359-16.941 22.896z" fill="#004D61"/><path d="M49.59 239.961c0 11.523-10.778 13.942-19.82 13.942-9.043 0-19.822-2.419-19.822-13.942H7.966c0 10.424 7.539 15.934 21.803 15.934 14.264 0 21.803-5.51 21.803-15.934H49.59z" fill="#004D61"/><path d="M113.581 207.534l7.519 7.613a3.714 3.714 0 01.105 5.094l-4.209 4.633a2.712 2.712 0 00-.194 3.403 67.601 67.601 0 0014.645 14.827 2.628 2.628 0 003.361-.196l4.576-4.261a3.602 3.602 0 015.031.106l7.519 7.614c1.592 1.612 1.369 4.286-.468 5.604l-6.858 4.921a11.623 11.623 0 01-14.15-.45 178.076 178.076 0 01-26.828-27.164 12.002 12.002 0 01-.445-14.327l4.86-6.943a3.607 3.607 0 015.536-.474z" fill="#fff"/><path d="M113.581 207.534l7.519 7.613a3.714 3.714 0 01.104 5.094l-2.494 2.746-12.378-12.533 1.712-2.446a3.608 3.608 0 015.537-.474zm30.834 31.219l7.519 7.614c1.592 1.611 1.368 4.286-.469 5.604l-2.416 1.734-12.378-12.533 2.712-2.524a3.605 3.605 0 015.032.105z" fill="#64B564"/><path d="M151.005 208.475C145.607 203.01 138.43 200 130.797 200a28.1 28.1 0 00-10.901 2.18.926.926 0 00-.495 1.205.907.907 0 001.19.5 26.299 26.299 0 019.295-2.022v4.112c0 .509.407.923.911.923a.918.918 0 00.911-.923v-4.112a26.318 26.318 0 0111.676 3.153l-2.038 3.574a.93.93 0 00.334 1.26.906.906 0 001.244-.338l2.036-3.57a27.277 27.277 0 018.546 8.653l-3.526 2.061a.93.93 0 00-.334 1.26.91.91 0 001.246.338l3.529-2.063a27.166 27.166 0 013.114 11.822h-4.061a.917.917 0 00-.911.923c0 .509.408.922.911.922h4.061a27.142 27.142 0 01-2.13 9.73.927.927 0 00.479 1.212.888.888 0 00.358.075c.353 0 .69-.21.838-.56a29.053 29.053 0 002.295-11.379c0-7.729-2.973-14.996-8.37-20.461z" fill="#004D61"/><path fill-rule="evenodd" clip-rule="evenodd" d="M131.03 255.724c.529.432 1.098.813 1.691 1.133.445.24.612.799.376 1.248a.909.909 0 01-1.233.381 12.715 12.715 0 01-1.978-1.325 179.992 179.992 0 01-26.966-27.303 12.817 12.817 0 01-2.798-7.64 12.806 12.806 0 012.319-7.8l4.861-6.944a4.523 4.523 0 013.326-1.924 4.503 4.503 0 013.597 1.332l7.52 7.614a4.631 4.631 0 01.131 6.37l-4.209 4.633a1.785 1.785 0 00-.13 2.234l.156.212a.929.929 0 01-.183 1.291.903.903 0 01-1.276-.184l-.167-.229a3.651 3.651 0 01.259-4.573l1.122-1.236-10.996-11.135-2.524 3.606c-2.785 3.978-2.615 9.412.411 13.214a178.093 178.093 0 0026.691 27.025zm-20.248-48.335a2.712 2.712 0 00-1.994 1.152l-1.268 1.811 11.163 11.303 1.852-2.038a2.775 2.775 0 00-.079-3.816l-1.951-1.977-.647.656a.903.903 0 01-1.289 0 .93.93 0 010-1.305l.647-.655-1.209-1.225-.647.656a.903.903 0 01-1.289 0 .93.93 0 010-1.305l.648-.655-1.783-1.804a2.697 2.697 0 00-2.154-.798z" fill="#004D61"/><path fill-rule="evenodd" clip-rule="evenodd" d="M138.767 237.968a4.494 4.494 0 016.291.132l7.52 7.614a4.627 4.627 0 011.316 3.642 4.61 4.61 0 01-1.9 3.368l-6.858 4.921a12.618 12.618 0 01-7.331 2.351c-.745 0-1.493-.066-2.232-.202a.923.923 0 01-.735-1.073.912.912 0 011.06-.743c2.885.53 5.792-.123 8.184-1.838l3.56-2.555-10.996-11.134-1.221 1.137a3.537 3.537 0 01-4.516.261 68.79 68.79 0 01-12.408-11.853.93.93 0 01.124-1.299.902.902 0 011.282.126 66.92 66.92 0 0012.078 11.536c.667.495 1.595.44 2.206-.129l4.576-4.262zm12.172 13.251a2.787 2.787 0 001.058-2.953l-.44.445a.903.903 0 01-1.289 0 .93.93 0 010-1.305l.702-.71-1.209-1.225-.702.711a.903.903 0 01-1.289 0 .93.93 0 010-1.305l.702-.711-1.209-1.224-.702.711a.901.901 0 01-1.288 0 .93.93 0 010-1.305l.701-.71-1.209-1.225-.702.711a.901.901 0 01-1.288 0 .93.93 0 010-1.305l.678-.686a2.687 2.687 0 00-3.452.193l-2.013 1.875 11.162 11.301 1.789-1.283z" fill="#004D61"/><path d="M131.632 224.363c-1.92 1.41-3.906 2.868-3.906 4.837v2.295c0 .47.562.771.949.771h8.317c.436 0 .739-.506.739-.961 0-.529-.331-.96-.739-.96h-7.111V229.2c0-1.248 1.415-2.259 3.054-3.431 2.182-1.56 4.656-3.327 4.656-6.244 0-2.666-2.096-4.675-4.874-4.675-2.632 0-4.617 1.765-4.617 4.106 0 .845.293 1.221.949 1.221.714 0 1.088-.424 1.088-.842 0-1.576.965-2.517 2.58-2.517 1.917 0 2.79 1.44 2.79 2.777 0 1.924-1.97 3.37-3.875 4.768zm13.926-8.671c0-.506-.613-.842-1.019-.842-.286 0-.681.104-.941.601l-5.768 11.514a.871.871 0 00-.127.484c0 .512.308.843.785.843h5.781v3.203c0 .529.54.771 1.042.771s1.042-.241 1.042-.771v-3.203h1.177c.449 0 .762-.532.762-1.008 0-.486-.238-1.008-.762-1.008h-1.177v-3.913c0-.516-.524-.747-1.042-.747-.519 0-1.042.231-1.042.747v3.913h-3.883l5.07-10.221a.658.658 0 00.102-.363z" fill="#004D61"/><path d="M336.213 138.518l-.536-1.149h-11.801l-.536 1.149c-3.617 7.752-.849 16.985 6.437 21.469 7.286-4.484 10.054-13.717 6.436-21.469z" fill="#FFE121"/><path fill-rule="evenodd" clip-rule="evenodd" d="M345.705 141.811l-1.235-9.877-4.908-3.926a2.84 2.84 0 00.049-.473c0-1.28-.825-2.362-1.967-2.769v-1.92a12.819 12.819 0 004.917-10.062c0-7.049-5.735-12.784-12.784-12.784s-12.784 5.735-12.784 12.784a12.82 12.82 0 004.917 10.063v1.919a2.946 2.946 0 00-1.967 2.769c0 .162.023.318.048.472l-4.907 3.926-1.235 9.877 9.27-3.476c.923 3.351 3.093 6.481 6.075 8.676l.583.431.583-.43c2.982-2.194 5.153-5.325 6.075-8.676l9.27 3.476zm-9.044-10.342a.984.984 0 01-.984.983h-11.801a.984.984 0 010-1.967h11.801c.543 0 .984.442.984.984zm-12.784 2.95a.984.984 0 000 1.967h11.8a.984.984 0 000-1.967h-11.8zm19.474 4.409l-5.144-1.93c.26-.44.42-.948.42-1.496a2.93 2.93 0 00-.767-1.966 2.929 2.929 0 00.767-1.967c0-.528-.15-1.017-.394-1.447.128-.08.245-.175.358-.274l4.028 3.222.732 5.858zm-13.574-36.861c-5.964 0-10.817 4.853-10.817 10.817 0 3.46 1.685 6.741 4.509 8.774l.408.294v2.733h1.967v-9.834h-.984a2.953 2.953 0 01-2.95-2.95 2.953 2.953 0 012.95-2.95 2.953 2.953 0 012.95 2.95v.983h3.934v-.983a2.954 2.954 0 012.95-2.95 2.953 2.953 0 012.95 2.95 2.953 2.953 0 01-2.95 2.95h-.983v9.834h1.966v-2.733l.409-.294a10.847 10.847 0 004.508-8.774c0-5.964-4.853-10.817-10.817-10.817zm-1.967 22.618v-9.834h3.934v9.834h-3.934zm5.9-12.784v.983h.984a.984.984 0 10-.984-.983zm-7.867.983h-.983a.984.984 0 11.983-.983v.983zm-1.966 13.768h-.984a.984.984 0 000 1.967h13.768a.984.984 0 000-1.967h-12.784zm-6.942 6.418l4.028-3.222c.113.099.23.193.358.274a2.92 2.92 0 00-.395 1.447c0 .758.296 1.443.767 1.967a2.925 2.925 0 00-.767 1.966c0 .548.161 1.056.422 1.496l-5.144 1.93.731-5.858zm8.224 5.383c.812 2.507 2.441 4.849 4.618 6.623 2.177-1.773 3.806-4.115 4.619-6.623h-9.237z" fill="#004D61"/><path fill="#004D61" d="M340.594 145.236h1.967v10.817h-1.967zm0 12.784h1.967v1.967h-1.967zm3.934-13.767h1.967v8.851h-1.967zm0 10.817h1.967v2.95h-1.967zm-27.535-9.834h1.967v12.784h-1.967zm-3.934-.983h1.967v9.834h-1.967zm0 11.801h1.967v1.967h-1.967z"/><path d="M358.94 49.898l-7.33-38.572v31.05l-9.937 9.938h15.129c1.353 0 2.377-1.157 2.138-2.416z" fill="#fff"/><path d="M351.727 42.377v-31.05c0-.867-.702-1.57-1.568-1.57h-47.74a1.57 1.57 0 00-1.569 1.57V53.12c0 .866.702 1.569 1.569 1.569h36.995l12.313-12.313z" fill="#fff"/><path d="M351.727 42.377h-10.744a1.57 1.57 0 00-1.569 1.568V54.69l12.313-12.313z" fill="#fff"/><path d="M350.159 9.64h-47.74a1.57 1.57 0 00-1.569 1.57v8.084h50.877V11.21c0-.866-.702-1.569-1.568-1.569z" fill="#64B564"/><path d="M321.615 31.043a2.706 2.706 0 100-5.411 2.706 2.706 0 000 5.411zm9.187 0a2.706 2.706 0 100-5.411 2.706 2.706 0 000 5.411zm9.348 0a2.706 2.706 0 100-5.413 2.706 2.706 0 000 5.413zm-18.694 8.745a2.706 2.706 0 100-5.413 2.706 2.706 0 000 5.413zm18.694 0a2.706 2.706 0 100-5.413 2.706 2.706 0 000 5.413zm-9.348 0a2.706 2.706 0 100-5.411 2.706 2.706 0 000 5.411zm0 8.745a2.706 2.706 0 100-5.411 2.706 2.706 0 000 5.411zm-9.346 0a2.706 2.706 0 100-5.413 2.706 2.706 0 000 5.413z" fill="#FFE121"/><path fill-rule="evenodd" clip-rule="evenodd" d="M318.059 28.278a3.589 3.589 0 013.585-3.585 3.589 3.589 0 013.585 3.585 3.589 3.589 0 01-3.585 3.585 3.589 3.589 0 01-3.585-3.585zm1.758 0a1.83 1.83 0 001.827 1.827c1.008 0 1.827-.82 1.827-1.827a1.829 1.829 0 00-1.827-1.827 1.83 1.83 0 00-1.827 1.827zm14.759 0a3.589 3.589 0 01-3.585 3.585 3.589 3.589 0 01-3.585-3.585 3.589 3.589 0 013.585-3.585 3.589 3.589 0 013.585 3.585zm-1.758 0a1.829 1.829 0 00-1.827-1.827c-1.008 0-1.827.82-1.827 1.827 0 1.008.819 1.827 1.827 1.827s1.827-.82 1.827-1.827zm11.105 0a3.589 3.589 0 01-3.585 3.585 3.589 3.589 0 01-3.585-3.585 3.589 3.589 0 013.585-3.585 3.589 3.589 0 013.585 3.585zm-1.758 0a1.83 1.83 0 00-1.827-1.827c-1.008 0-1.827.82-1.827 1.827 0 1.008.819 1.827 1.827 1.827a1.83 1.83 0 001.827-1.827zm-24.106 8.745a3.589 3.589 0 013.585-3.585 3.589 3.589 0 013.585 3.585 3.589 3.589 0 01-3.585 3.585 3.589 3.589 0 01-3.585-3.585zm1.758 0a1.83 1.83 0 001.827 1.827c1.008 0 1.827-.82 1.827-1.827a1.829 1.829 0 00-1.827-1.827 1.83 1.83 0 00-1.827 1.827zm24.106 0a3.589 3.589 0 01-3.585 3.585 3.589 3.589 0 01-3.585-3.585 3.589 3.589 0 013.585-3.585 3.589 3.589 0 013.585 3.585zm-1.758 0a1.83 1.83 0 00-1.827-1.827c-1.008 0-1.827.82-1.827 1.827 0 1.008.819 1.827 1.827 1.827a1.83 1.83 0 001.827-1.827zm-7.589 0a3.589 3.589 0 01-3.585 3.585 3.589 3.589 0 01-3.585-3.585 3.589 3.589 0 013.585-3.585 3.589 3.589 0 013.585 3.585zm-1.758 0a1.829 1.829 0 00-1.827-1.827c-1.008 0-1.827.82-1.827 1.827 0 1.008.819 1.827 1.827 1.827s1.827-.82 1.827-1.827zm1.758 8.745a3.589 3.589 0 01-3.585 3.585 3.589 3.589 0 01-3.585-3.585 3.59 3.59 0 013.585-3.585 3.59 3.59 0 013.585 3.585zm-1.758 0a1.829 1.829 0 00-1.827-1.827c-1.008 0-1.827.82-1.827 1.827 0 1.008.819 1.828 1.827 1.828s1.827-.82 1.827-1.828zm-14.759 0a3.59 3.59 0 013.585-3.585 3.589 3.589 0 013.585 3.585 3.589 3.589 0 01-3.585 3.585 3.589 3.589 0 01-3.585-3.585zm1.758 0a1.83 1.83 0 001.827 1.827c1.008 0 1.827-.82 1.827-1.827a1.829 1.829 0 00-1.827-1.827 1.83 1.83 0 00-1.827 1.827z" fill="#004D61"/><path d="M309.763 30.813a.878.878 0 001.243 0l1.292-1.292 1.292 1.292a.878.878 0 101.243-1.243l-1.292-1.292 1.292-1.292a.88.88 0 00-1.243-1.243l-1.292 1.292-1.292-1.292a.879.879 0 10-1.243 1.243l1.292 1.292-1.292 1.292a.878.878 0 000 1.243zm0 8.745a.878.878 0 001.243 0l1.292-1.292 1.292 1.292a.878.878 0 101.243-1.243l-1.292-1.292 1.292-1.292a.88.88 0 00-1.243-1.243l-1.292 1.292-1.292-1.292a.879.879 0 00-1.243 1.243l1.292 1.292-1.292 1.292a.878.878 0 000 1.243zm5.07 3.675a.88.88 0 00-1.244 0l-1.292 1.292-1.292-1.292a.88.88 0 00-1.243 1.243l1.292 1.292-1.292 1.292a.88.88 0 001.243 1.243l1.292-1.292 1.292 1.292a.878.878 0 001.244 0 .88.88 0 000-1.243l-1.292-1.292 1.292-1.292a.88.88 0 000-1.243z" fill="#004D61"/><path fill-rule="evenodd" clip-rule="evenodd" d="M359.949 49.675l-2.397-12.615a.879.879 0 10-1.727.329l2.397 12.614c.134.706-.462 1.373-1.274 1.373h-13.006l8.436-8.436a.89.89 0 00.257-.622V20.602l2.411 12.685a.879.879 0 101.727-.328l-4.143-21.804a2.45 2.45 0 00-2.442-2.335h-7.703V5.994a.879.879 0 10-1.758 0V8.82h-5.886V5.994a.88.88 0 00-1.758 0V8.82h-5.886V5.994a.88.88 0 00-1.758 0V8.82h-5.887V5.994a.879.879 0 10-1.757 0V8.82h-5.887V5.994a.879.879 0 10-1.758 0V8.82h-7.702A2.45 2.45 0 00300 11.268v41.794a2.45 2.45 0 002.448 2.448h21.819a.88.88 0 000-1.758h-21.819a.69.69 0 01-.69-.69v-32.83h49.12V41.44h-9.866a2.45 2.45 0 00-2.448 2.448v9.865h-10.195a.879.879 0 100 1.758h11.074c.227 0 .454-.09.622-.258l2.119-2.118h14.764c1.909 0 3.343-1.662 3.001-3.459zm-58.191-31.2v-7.207c0-.38.309-.69.69-.69h7.702v3.948a.88.88 0 001.758 0v-3.948h5.887v3.948a.878.878 0 101.757 0v-3.948h5.887v3.948a.879.879 0 101.758 0v-3.948h5.886v3.948a.879.879 0 101.758 0v-3.948h5.886v3.948a.88.88 0 001.758 0v-3.948h7.703c.38 0 .689.31.689.69v7.206h-49.119zm39.254 24.722c-.38 0-.69.31-.69.69v8.622l9.312-9.312h-8.622z" fill="#004D61"/><path d="M250.157 158.828h-46.641a2.344 2.344 0 01-2.344-2.344v-52.968a2.344 2.344 0 012.344-2.344h46.641a2.343 2.343 0 012.343 2.344v52.968a2.343 2.343 0 01-2.343 2.344z" fill="#64B564"/><path fill="#fff" d="M206.797 106.797h40.079v46.406h-40.079z"/><path d="M251.328 136.41v11.015l-3.75-3.73-3.75 3.73V136.41h7.5z" fill="#fff"/><path d="M248.785 114.263a2.236 2.236 0 013.195.856 2.239 2.239 0 002.092 1.207 2.238 2.238 0 012.339 2.339 2.236 2.236 0 001.207 2.091 2.237 2.237 0 01.856 3.195 2.236 2.236 0 000 2.415 2.237 2.237 0 01-.856 3.195 2.239 2.239 0 00-1.207 2.092 2.238 2.238 0 01-2.339 2.339 2.239 2.239 0 00-2.092 1.207 2.237 2.237 0 01-3.195.856 2.236 2.236 0 00-2.415 0 2.237 2.237 0 01-3.195-.856 2.236 2.236 0 00-2.091-1.207 2.238 2.238 0 01-2.339-2.339 2.239 2.239 0 00-1.207-2.092 2.236 2.236 0 01-.856-3.195 2.24 2.24 0 000-2.415 2.237 2.237 0 01.856-3.195 2.236 2.236 0 001.207-2.091 2.238 2.238 0 012.339-2.339 2.236 2.236 0 002.091-1.207 2.236 2.236 0 013.195-.856 2.24 2.24 0 002.415 0z" fill="#FFE121"/><path fill-rule="evenodd" clip-rule="evenodd" d="M251.329 153.203a1.172 1.172 0 112.343 0v3.281a3.52 3.52 0 01-3.515 3.516h-46.641a3.52 3.52 0 01-3.516-3.516v-52.968a3.52 3.52 0 013.516-3.516h46.641a3.52 3.52 0 013.515 3.516v6.211a1.17 1.17 0 11-2.343 0v-6.211c0-.647-.526-1.172-1.172-1.172h-46.641c-.646 0-1.172.525-1.172 1.172v52.968c0 .647.526 1.172 1.172 1.172h46.641c.646 0 1.172-.525 1.172-1.172v-3.281zm-3.281-43.359a1.172 1.172 0 01-2.344 0v-1.875h-37.735v23.32a1.172 1.172 0 01-2.344 0v-24.492c0-.647.524-1.172 1.172-1.172h40.079c.647 0 1.172.525 1.172 1.172v3.047zm-41.252 26.953c.31 0 .611-.126.829-.343a1.178 1.178 0 000-1.658 1.183 1.183 0 00-.829-.343c-.308 0-.61.126-.828.343a1.183 1.183 0 00-.344.829c0 .308.126.611.344.829.218.217.52.343.828.343zm.001 2.168c.647 0 1.172.524 1.172 1.172v11.894h37.735v-1.406a1.172 1.172 0 012.344 0v2.578c0 .647-.525 1.172-1.172 1.172h-40.079a1.172 1.172 0 01-1.172-1.172v-13.066c0-.648.524-1.172 1.172-1.172zm27.863 2.441l-2.316 2.317-1.44-1.44a2.334 2.334 0 00-3.297 0l-.936.937a1.17 1.17 0 101.657 1.657l.928-.928 1.44 1.44a2.324 2.324 0 001.648.682c.597 0 1.194-.228 1.648-.682l2.325-2.325a1.17 1.17 0 10-1.657-1.658zm25.224-19.545a3.419 3.419 0 01-.423 2.723 1.068 1.068 0 000 1.15c.516.805.671 1.798.423 2.722a3.416 3.416 0 01-1.728 2.146 1.07 1.07 0 00-.575.996 3.412 3.412 0 01-3.564 3.564 1.07 1.07 0 00-.996.575c-.14.272-.317.522-.521.744v10.944a1.172 1.172 0 01-1.999.831l-2.923-2.908-2.923 2.908a1.172 1.172 0 01-1.999-.831v-10.944a3.382 3.382 0 01-.521-.744 1.07 1.07 0 00-.996-.575 3.41 3.41 0 01-3.564-3.564 1.055 1.055 0 00-.07-.426H214.74a1.172 1.172 0 110-2.344h20.656a3.42 3.42 0 01.299-3.094c.039-.06.068-.123.093-.187H214.74a1.172 1.172 0 010-2.344h20.449a3.422 3.422 0 01.083-1.342 3.42 3.42 0 011.728-2.146c.369-.19.594-.581.575-.996a3.417 3.417 0 01.995-2.569 3.417 3.417 0 012.569-.994c.413.018.805-.207.996-.576a3.412 3.412 0 014.868-1.304c.349.224.801.224 1.15 0a3.413 3.413 0 014.868 1.304c.191.369.58.596.996.576a3.417 3.417 0 012.57.994 3.417 3.417 0 01.994 2.569c-.019.415.207.806.575.996a3.418 3.418 0 011.728 2.146zm-13.133 21.003a1.172 1.172 0 011.653 0l1.752 1.742v-7.031l-.007.001c-.051.002-.103.005-.154.005a3.416 3.416 0 01-1.842-.539 1.068 1.068 0 00-1.15 0 3.418 3.418 0 01-2.003.534v7.03l1.751-1.742zm10.737-15.865c.164.255.211.558.132.851-.079.293-.27.531-.54.67a3.42 3.42 0 00-1.84 3.187c.014.303-.096.589-.311.803-.214.215-.5.325-.803.311a3.42 3.42 0 00-3.187 1.84c-.139.27-.377.462-.67.54a1.055 1.055 0 01-.851-.132 3.41 3.41 0 00-3.68 0c-.256.164-.558.21-.851.132a1.053 1.053 0 01-.671-.54 3.416 3.416 0 00-3.187-1.84 1.051 1.051 0 01-.802-.311 1.052 1.052 0 01-.311-.803 3.417 3.417 0 00-.984-2.554 3.432 3.432 0 00-.856-.633 1.049 1.049 0 01-.54-.67 1.051 1.051 0 01.132-.851 3.417 3.417 0 000-3.68 1.051 1.051 0 01-.132-.851c.078-.293.27-.531.54-.671a3.419 3.419 0 001.84-3.186 1.05 1.05 0 01.311-.803c.214-.215.5-.325.803-.311a3.418 3.418 0 003.186-1.84c.14-.27.378-.462.671-.54.293-.079.596-.032.851.132a3.417 3.417 0 003.68 0 1.05 1.05 0 01.851-.132c.293.078.531.27.67.54a3.42 3.42 0 003.187 1.84 1.05 1.05 0 01.803.311c.215.214.325.499.311.803a3.417 3.417 0 001.84 3.186c.27.14.461.378.54.671.078.293.032.596-.132.851a3.417 3.417 0 000 3.68zm-5.994-5.028l-3.89 3.89-1.548-1.549a1.174 1.174 0 00-1.658 0 1.174 1.174 0 000 1.658l2.377 2.377c.229.229.529.343.829.343.3 0 .6-.114.829-.343l4.718-4.719a1.17 1.17 0 10-1.657-1.657zm-37.188-7.8c.218.218.343.521.343.829 0 .308-.125.611-.343.829a1.186 1.186 0 01-.829.343c-.308 0-.611-.126-.828-.343a1.183 1.183 0 01-.344-.829c0-.308.126-.611.344-.829.217-.217.52-.343.828-.343.308 0 .611.126.829.343zm3.545-.343a1.172 1.172 0 000 2.344h5.703a1.172 1.172 0 100-2.344h-5.703zm4.241 20.625h13.397a1.172 1.172 0 010 2.344h-13.397a1.172 1.172 0 110-2.344z" fill="#004D61"/><path d="M153.039 100.917h-40.324c-.673 0-1.223.55-1.223 1.222v5.434h35.021c.673 0 1.223.55 1.223 1.222v43.515h5.303c.672 0 1.222-.55 1.222-1.222v-48.949c0-.672-.55-1.222-1.222-1.222z" fill="#64B564"/><path d="M146.513 158.966c.673 0 1.223-.55 1.223-1.222v-48.949c0-.672-.55-1.222-1.223-1.222h-40.324c-.672 0-1.222.55-1.222 1.222v36.373c0 .672.389 1.611.864 2.087l10.832 10.847c.475.476 1.413.865 2.085.865h27.765v-.001z" fill="#fff"/><path d="M117.526 147.612c0-.672-.55-1.222-1.222-1.222h-10.115c-.672 0-.833.389-.358.865l10.832 10.847c.475.476.863.315.863-.358v-10.132z" fill="#64B564"/><path d="M154.261 140.879c.506 0 .916-.41.916-.916v-37.824a2.14 2.14 0 00-2.138-2.139h-40.324a2.14 2.14 0 00-2.139 2.139v4.517h-4.387c-1.179 0-2.138.96-2.138 2.139v36.373c0 .913.486 2.089 1.131 2.735l4.557 4.562a.912.912 0 001.296.001.916.916 0 00.001-1.296l-3.858-3.863h9.126a.31.31 0 01.306.305v9.14l-2.279-2.283a.916.916 0 00-1.297 1.296l2.98 2.985c.646.646 1.821 1.133 2.735 1.133h27.764a2.14 2.14 0 002.139-2.138v-4.518h4.387c1.179 0 2.138-.96 2.138-2.139v-6.236a.916.916 0 10-1.833 0v6.236a.31.31 0 01-.305.306h-4.387v-35.262a.916.916 0 10-1.833 0v41.612a.31.31 0 01-.306.306h-27.765c-.09 0-.195-.014-.305-.039v-10.399a2.141 2.141 0 00-2.139-2.139h-10.382a1.475 1.475 0 01-.038-.305v-36.373c0-.166.14-.305.305-.305h40.324a.31.31 0 01.306.305v2.937a.917.917 0 101.833 0v-2.937a2.141 2.141 0 00-2.139-2.139h-34.104v-4.517a.31.31 0 01.306-.306h40.324a.31.31 0 01.305.306v37.824c0 .506.41.916.917.916z" fill="#004D61"/><path d="M137.654 116.682h-21.335a.917.917 0 100 1.833h21.335a.916.916 0 000-1.833zm0 5.866h-21.335a.917.917 0 100 1.833h21.335a.916.916 0 000-1.833zm0 5.866h-21.335a.917.917 0 100 1.833h21.335a.916.916 0 100-1.833zm0 5.866h-21.335a.917.917 0 100 1.833h21.335a.916.916 0 100-1.833zm0 5.866h-21.335a.917.917 0 100 1.833h21.335a.916.916 0 100-1.833zm0 5.866h-13.106a.916.916 0 000 1.833h13.106a.916.916 0 100-1.833z" fill="#004D61"/><path d="M.89 158.109h45.15v-46.493L34.314 99.891H.89v58.218z" fill="#fff"/><path d="M46.04 111.616H34.314V99.891" fill="#fff"/><path d="M58.91 121.714l-10.267 25.094-6.178 5.688-.42-8.387 10.267-25.094a1.404 1.404 0 011.83-.767l4.002 1.638a1.403 1.403 0 01.766 1.828z" fill="#64B564"/><path d="M48.643 146.808l-6.178 5.688-.033-.654-.387-7.734 6.598 2.7zm10.267-25.094l-1.988 4.861-6.598-2.7 1.988-4.86a1.404 1.404 0 011.829-.767l4.002 1.638a1.402 1.402 0 01.767 1.828z" fill="#FFE121"/><path fill-rule="evenodd" clip-rule="evenodd" d="M58.48 119.061a2.28 2.28 0 011.247 1.236c.237.565.24 1.188.008 1.755l-4.95 12.097a.89.89 0 11-1.65-.675l2.624-6.412-4.948-2.024-7.604 18.583 4.948 2.025 3.703-9.049a.89.89 0 111.65.675l-4.04 9.874a.9.9 0 01-.221.318l-2.316 2.132v8.513c0 .492-.4.891-.891.891H.89a.891.891 0 01-.891-.891v-47.776a.891.891 0 011.782 0v46.885h43.366v-5.982l-2.08 1.916a.89.89 0 01-1.493-.612l-.42-8.387a.888.888 0 01.065-.382l3.929-9.601v-21.664H34.315a.89.89 0 01-.891-.89v-10.834H1.782v5.986a.892.892 0 11-1.782 0v-6.877C0 99.4.4 99 .891 99h33.424a.89.89 0 01.63.26l11.725 11.725c.167.167.26.394.26.631v18.198l4.557-11.137a2.284 2.284 0 011.236-1.246 2.276 2.276 0 011.755-.007l4.003 1.637zm-14.591-8.336l-8.683-8.683v8.683h8.682zm-.884 34.739l4.003 1.638-3.748 3.451-.255-5.089zm13.429-20.051l1.651-4.036a.506.506 0 00-.002-.391.504.504 0 00-.277-.275l-4.003-1.638a.509.509 0 00-.667.279l-1.65 4.036 4.948 2.025z" fill="#004D61"/><path d="M29.654 108.728H18.605a.891.891 0 000 1.782h11.05a.891.891 0 000-1.782z" fill="#004D61"/><path fill-rule="evenodd" clip-rule="evenodd" d="M13.937 128.272H6.892a.891.891 0 01-.892-.891v-7.045c0-.492.4-.891.892-.891h6.946l.918-1.169a.892.892 0 011.401 1.101l-1.33 1.693v6.311a.89.89 0 01-.89.891zm-1.5-7.045H7.782v5.263h5.263v-3.152l-1.245 1.585a.892.892 0 01-.647.339l-.054.001a.89.89 0 01-.63-.261L8.768 123.3a.891.891 0 111.26-1.26l.991.992 1.418-1.805z" fill="#004D61"/><path d="M39.158 120.829H20.09a.891.891 0 000 1.782h19.068a.891.891 0 100-1.782zm-19.068 6.059h15.326a.89.89 0 000-1.782H20.09a.891.891 0 000 1.782z" fill="#004D61"/><path fill-rule="evenodd" clip-rule="evenodd" d="M6.892 139.974a.891.891 0 01-.892-.891v-7.045c0-.492.4-.891.892-.891h6.946l.918-1.168a.891.891 0 011.401 1.101l-1.33 1.692v6.311a.89.89 0 01-.89.891H6.892zm5.545-7.045H7.782v5.263h5.263v-3.151l-1.245 1.584a.892.892 0 01-.647.339l-.054.002a.894.894 0 01-.63-.261l-1.701-1.702a.892.892 0 011.26-1.261l.991.992 1.418-1.805z" fill="#004D61"/><path d="M39.158 132.531H20.09a.891.891 0 000 1.782h19.068a.89.89 0 100-1.782zm-19.068 6.06h5.703a.892.892 0 000-1.782H20.09a.89.89 0 100 1.782z" fill="#004D61"/><path fill-rule="evenodd" clip-rule="evenodd" d="M6.892 151.677a.891.891 0 01-.892-.892v-7.044c0-.492.4-.891.892-.891h7.045a.89.89 0 01.89.891v7.044a.891.891 0 01-.89.892H6.892zm6.153-7.045H7.782v5.262h5.263v-5.262z" fill="#004D61"/><path d="M40.05 145.125a.892.892 0 00-.892-.892H20.09a.892.892 0 000 1.783h19.068a.891.891 0 00.892-.891zm-19.96 3.385a.892.892 0 000 1.783h16.217a.891.891 0 100-1.783H20.09z" fill="#004D61"/><path d="M106.905 6.267v51.01c0 1.023.829 1.852 1.851 1.852h43.297a1.85 1.85 0 001.851-1.851V6.268h-46.999z" fill="#fff"/><path d="M143.002 14.554h-25.195a1.19 1.19 0 00-1.191 1.19v32.21a1.19 1.19 0 001.191 1.191h25.195a1.19 1.19 0 001.191-1.19v-32.21a1.19 1.19 0 00-1.191-1.19z" fill="#64B564"/><path d="M140.091 21.889h-19.518a.775.775 0 00-.773.773v3.013c0 .425.348.773.773.773h19.518a.776.776 0 00.773-.773v-3.013a.775.775 0 00-.773-.773zm0 11.256h-19.518a.775.775 0 00-.773.773v3.013c0 .425.348.773.773.773h19.518a.775.775 0 00.773-.773v-3.013a.775.775 0 00-.773-.773z" fill="#fff"/><path d="M140.091 41.426h-19.518a.775.775 0 00-.773.773v3.013c0 .426.348.774.773.774h19.518a.775.775 0 00.773-.774V42.2a.775.775 0 00-.773-.773z" fill="#FFE121"/><path d="M152.053.887h-43.297a1.851 1.851 0 00-1.851 1.85v3.765h46.999V2.737a1.85 1.85 0 00-1.851-1.85z" fill="#fff"/><path fill-rule="evenodd" clip-rule="evenodd" d="M154.757 2.73a2.733 2.733 0 00-2.73-2.73H108.73A2.733 2.733 0 00106 2.73v54.54a2.733 2.733 0 002.73 2.73h19.598a.88.88 0 000-1.758H108.73a.973.973 0 01-.972-.972V7.373h45.241v20.576a.879.879 0 101.758 0V2.73zm-46.999 2.885V2.73c0-.536.436-.972.972-.972h2.931v3.857h-3.903zm5.661-3.857v3.857h39.58V2.73a.973.973 0 00-.972-.972h-38.608zM132.429 60h19.598a2.733 2.733 0 002.73-2.73V32.05a.879.879 0 10-1.758 0v25.22a.973.973 0 01-.972.972h-19.598a.878.878 0 000 1.758zm2.525-48.762a.878.878 0 01-.878.879h-7.394a.879.879 0 110-1.758h7.394c.485 0 .878.393.878.879zm5.884 40.319a.88.88 0 000 1.757h2.051a.878.878 0 100-1.758h-2.051zm-6.161.878c0-.485.393-.879.879-.879h2.051a.88.88 0 010 1.758h-2.051a.878.878 0 01-.879-.879zm-18.966-4.488v-32.21c0-1.141.928-2.07 2.07-2.07h25.195c1.142 0 2.07.929 2.07 2.07v32.21c0 1.14-.928 2.07-2.07 2.07h-25.195a2.072 2.072 0 01-2.07-2.07zm27.577 0v-32.21a.312.312 0 00-.312-.312h-25.195a.312.312 0 00-.312.312v32.21c0 .171.14.311.312.311h25.195c.172 0 .312-.14.312-.311zm-16.121-17.04h-7.393a.879.879 0 110-1.758h7.393a.878.878 0 110 1.758zm12.898-3.588h-19.518a1.654 1.654 0 01-1.652-1.652v-3.013c0-.91.741-1.652 1.652-1.652h19.518c.911 0 1.652.741 1.652 1.652v3.013c0 .91-.741 1.652-1.652 1.652zm-.106-4.559h-19.306v2.801h19.306V22.76zm-12.792-3.11h-7.393a.878.878 0 110-1.757h7.393a.879.879 0 110 1.757zm12.898 18.925h-19.518a1.654 1.654 0 01-1.652-1.652V33.91c0-.91.741-1.652 1.652-1.652h19.518c.911 0 1.652.741 1.652 1.652v3.013c0 .911-.741 1.652-1.652 1.652zm-.106-4.559h-19.306v2.802h19.306v-2.802zm-19.412 12.84h19.518c.893 0 1.652-.727 1.652-1.651v-3.013c0-.911-.741-1.652-1.652-1.652h-19.518c-.876 0-1.652.713-1.652 1.652v3.013c0 .911.741 1.652 1.652 1.652zm.106-3.878l2.121 2.12h-2.121v-2.12zm12.551 2.12l-2.802-2.8h-2.87l2.802 2.8h2.87zm6.755-.803l-1.997-1.998h1.997v1.998zm-1.682.804l-2.802-2.802h-2.587l2.801 2.802h2.588zm-13.231-2.802l2.801 2.802h-2.587l-2.802-2.802h2.588z" fill="#004D61"/><path d="M259 230c0 16.016-12.984 29-29 29s-29-12.984-29-29 12.984-29 29-29 29 12.984 29 29z" fill="#64B564" stroke="#fff" stroke-width="2"/><path fill-rule="evenodd" clip-rule="evenodd" d="M226.455 215c6.317 0 11.455 5.139 11.455 11.455 0 6.317-5.138 11.455-11.455 11.455-2.058 0-4.063-.548-5.822-1.588l-5.591 1.546 1.546-5.59a11.425 11.425 0 01-1.588-5.823c0-6.316 5.139-11.455 11.455-11.455zm-3.516 8.789h1.758a1.76 1.76 0 011.758-1.758 1.76 1.76 0 011.186 3.056l-2.065 1.889v2.145h1.758v-1.371l1.493-1.367a3.522 3.522 0 001.144-2.594 3.52 3.52 0 00-3.516-3.516 3.52 3.52 0 00-3.516 3.516zm4.395 7.09v1.758h-1.758v-1.758h1.758zm12.332-4.238c3.198 1.617 5.334 4.939 5.334 8.662a9.664 9.664 0 01-1.348 4.934l1.306 4.721-4.721-1.306a9.664 9.664 0 01-4.934 1.348c-3.723 0-7.045-2.136-8.662-5.334 7.138-.1 12.925-5.887 13.025-13.025z" fill="#fff"/><path d="M359 230c0 16.016-12.984 29-29 29s-29-12.984-29-29 12.984-29 29-29 29 12.984 29 29z" fill="#64B564" stroke="#fff" stroke-width="2"/><path fill-rule="evenodd" clip-rule="evenodd" d="M338.485 221.515a.999.999 0 00-1.414 0L330 228.586l-7.071-7.071a.999.999 0 10-1.414 1.414l7.071 7.071-7.071 7.071a.999.999 0 101.414 1.414l7.071-7.071 7.071 7.071a.999.999 0 101.414-1.414L331.414 230l7.071-7.071a.999.999 0 000-1.414z" fill="#fff"/></svg>