<svg width="250" height="40" fill="none" xmlns="http://www.w3.org/2000/svg"><path d="M30.697 21.675l-.91-.91a1.178 1.178 0 000-1.664 1.204 1.204 0 00-1.663 0l-.91-.91.643-.643a1.178 1.178 0 000-1.664 1.205 1.205 0 00-1.663 0l-.644.644-.91-.91 1.287-1.287a1.178 1.178 0 00-1.664-1.664l-1.286 1.287-.91-.91.643-.643c.223-.223.344-.518.344-.832a1.178 1.178 0 00-2.008-.832l-.643.644-.91-.91.644-.643c.96-.96 2.523-.96 3.483 0 .377.377.606.848.687 1.338a2.468 2.468 0 012.53.592c.683.683.88 1.67.591 2.53.49.08.961.309 1.339.686.683.684.88 1.671.591 2.53.49.081.961.31 1.339.687.96.96.96 2.524 0 3.484zm-9.917 7.454l-1.842 1.842-4.487 1.923-6.513 5.861.86.956 2.188-1.968c.261.132.521.267.784.385l.527-1.173c-.094-.043-.188-.094-.282-.139l3.137-2.823 4.52-1.937 2.018-2.018-.91-.91z" fill="#004D61"/><path fill-rule="evenodd" clip-rule="evenodd" d="M6.815 16.552L16.568 6.8l16.515 16.514-9.753 9.753-11.864-11.864 1.892-2.836a1.36 1.36 0 00-.17-1.712 1.358 1.358 0 00-1.919 0l-.008.008-2.204 2.132-2.242-2.243zm10.793 5.722a3.311 3.311 0 104.682-4.683 3.311 3.311 0 00-4.682 4.683z" fill="#64B564"/><path fill-rule="evenodd" clip-rule="evenodd" d="M17.153 22.729a3.927 3.927 0 002.796 1.158 3.923 3.923 0 002.796-1.158 3.925 3.925 0 001.158-2.796c0-1.057-.411-2.05-1.158-2.796a3.925 3.925 0 00-2.796-1.158c-1.057 0-2.05.411-2.796 1.158a3.926 3.926 0 00-1.158 2.796c0 1.056.411 2.05 1.158 2.796zm.91-4.681a2.653 2.653 0 011.886-.782c.712 0 1.382.277 1.886.782.504.504.782 1.174.782 1.886s-.277 1.382-.782 1.886a2.652 2.652 0 01-1.886.781 2.65 2.65 0 01-1.886-.781 2.652 2.652 0 01-.782-1.886c0-.713.277-1.383.782-1.886z" fill="#004D61"/><path d="M10.406 22.793l1.07.713 2.952-4.426a2.65 2.65 0 00-.33-3.335 2.647 2.647 0 00-3.74 0l-3.87 3.87-1.286 6.434-2.032 2.033c-.055-.113-.117-.222-.169-.335l-1.168.539c.118.254.25.503.38.753l-2.02 2.02.91.91 5.284-5.285 1.287-6.434 3.595-3.595a1.358 1.358 0 011.919 0 1.36 1.36 0 01.17 1.712l-2.952 4.426z" fill="#004D61"/><path fill-rule="evenodd" clip-rule="evenodd" d="M23.072 1.537a18.803 18.803 0 00-2.518-.252L20.595 0c.9.028 1.806.12 2.69.268l-.213 1.269zm-9.95 1.027l-.471-1.197a19.95 19.95 0 00-2.442 1.159l.63 1.122a18.455 18.455 0 012.283-1.084zm-5.176 1.44L8.72 5.03a18.938 18.938 0 00-1.913 1.658l-.906-.914a20.246 20.246 0 012.044-1.77zm28.593 4.858a20.239 20.239 0 00-1.65-2.14l-.964.851c.557.63 1.077 1.304 1.545 2.003l1.069-.714zM4.116 7.803l1.02.785a18.745 18.745 0 00-1.401 2.106l-1.117-.637c.446-.782.95-1.54 1.498-2.254zm-2.677 4.69l1.194.48a18.727 18.727 0 00-.783 2.407l-1.247-.313c.219-.871.5-1.738.836-2.574zM.26 23.123c.142.887.347 1.774.61 2.636l1.23-.376a18.552 18.552 0 01-.57-2.463l-1.27.203zm1.145-5.254a18.996 18.996 0 00-.106 2.53l-1.287.03a20.14 20.14 0 01.115-2.701l1.278.141zm37.183 1.21l1.286-.06c-.04-.9-.144-1.804-.304-2.685l-1.266.23c.15.825.246 1.67.285 2.515zm-.7-7.874c.393.808.734 1.652 1.015 2.506l-1.222.401a18.715 18.715 0 00-.951-2.344l1.157-.563zm-8.49 24.82l.654 1.11a20.11 20.11 0 002.232-1.527l-.797-1.01a18.969 18.969 0 01-2.088 1.428zm2.727-30.229a18.683 18.683 0 00-2.024-1.52l.701-1.08c.754.49 1.481 1.037 2.164 1.625l-.841.975zm-6.592-3.671c.803.252 1.596.561 2.358.92l.548-1.164a19.753 19.753 0 00-2.522-.983l-.384 1.227zm11.951 27.319l-1.13-.614a18.46 18.46 0 001.054-2.3l1.204.454a19.93 19.93 0 01-1.127 2.46zm.654-5.337l1.254.286c.2-.876.342-1.774.422-2.671l-1.281-.115c-.074.84-.208 1.68-.395 2.5zm-3.849 9.689l-.925-.895a18.904 18.904 0 001.633-1.934l1.037.762a19.94 19.94 0 01-1.745 2.067zm-9.546 4.173l.331 1.244c.87-.23 1.73-.523 2.56-.87l-.496-1.188a18.35 18.35 0 01-2.395.814zm-7.72 1.695a20.226 20.226 0 01-2.643-.575l.357-1.237c.81.235 1.641.416 2.473.539l-.188 1.273zM15.228.55l.303 1.25a18.774 18.774 0 012.494-.427l-.132-1.28a20.2 20.2 0 00-2.664.457zm4.502 38.04l.219.002c.773 0 1.55-.048 2.31-.141l.158 1.276c-.812.1-1.643.151-2.468.151h-.23l.011-1.288z" fill="#004D61"/><path d="M162.035 26.376c4.988 0 9.032-4.024 9.032-8.99 0-4.964-4.044-8.989-9.032-8.989s-9.032 4.025-9.032 8.99 4.044 8.99 9.032 8.99z" fill="#64B564"/><path fill-rule="evenodd" clip-rule="evenodd" d="M162.275.096a35.436 35.436 0 0013.161 2.522h1.437V21.99c0 6.11-3.347 11.722-8.736 14.648l-6.102 3.312-6.102-3.312a16.723 16.723 0 01-6.153-5.767h-5.809a1.933 1.933 0 01-1.935-1.926V18.029c0-1.062.868-1.927 1.935-1.927h3.226V2.618h1.438c4.529 0 8.956-.849 13.161-2.522l.239-.096.24.096zm-18.949 17.933v10.916c0 .354.289.642.645.642h5.806a.644.644 0 00.645-.642V18.029a.644.644 0 00-.645-.642h-5.806a.644.644 0 00-.645.642zm8.387 1.278c2.154-.116 3.871-1.897 3.871-4.07V11.93a1.61 1.61 0 011.613-1.606c.889 0 1.612.72 1.612 1.606v4.041c0 1.135.928 2.059 2.069 2.059h4.729c1.232 0 2.235.997 2.235 2.224v7.11a2.232 2.232 0 01-2.235 2.224h-9.505a1.53 1.53 0 01-1.272-.677 2.817 2.817 0 00-2.345-1.25h-.772v-8.353zM167.52 35.51a15.381 15.381 0 008.063-13.52V3.901h-.148c-4.608 0-9.114-.847-13.4-2.52a36.714 36.714 0 01-13.401 2.52h-.147v12.2h1.29V5.176l.616-.029a38.017 38.017 0 0011.418-2.305l.224-.082.224.083a38.012 38.012 0 0011.418 2.305l.616.028v1.938h-1.29v-.716a39.284 39.284 0 01-10.968-2.27 39.275 39.275 0 01-10.967 2.27v10.206c.387.348.636.845.642 1.403 1.442-.114 2.583-1.305 2.583-2.769V11.93a2.9 2.9 0 012.904-2.89 2.9 2.9 0 012.903 2.89v4.041c0 .427.349.775.778.775h4.73c1.943 0 3.524 1.573 3.524 3.508v7.11c0 1.934-1.581 3.508-3.524 3.508h-9.506a2.816 2.816 0 01-2.345-1.248 1.515 1.515 0 00-.464-.437 12.822 12.822 0 004.493 4.069l4.249 2.306 4.249-2.306a12.814 12.814 0 006.719-11.265v-9.74h1.29v9.74c0 5.169-2.832 9.918-7.391 12.392l-4.867 2.643-4.866-2.643a14.095 14.095 0 01-5.469-5.31 1.911 1.911 0 01-.685 1.341 15.443 15.443 0 005.536 5.097l5.484 2.977 5.485-2.977zm-22.904-8.491h4.516v1.284h-4.516v-1.284zM174.293 9.68h-1.29v1.285h1.29V9.68z" fill="#004D61"/><path d="M107.656 39.219c.863 0 1.563-.7 1.563-1.563V6.563c0-.864-.7-1.563-1.563-1.563H72.344c-.863 0-1.563.7-1.563 1.563v31.093c0 .863.7 1.563 1.563 1.563h35.312z" fill="#fff"/><path d="M109.219 6.563c0-.864-.7-1.563-1.563-1.563H72.344c-.863 0-1.563.7-1.563 1.563v7.187h38.438V6.562z" fill="#64B564"/><path d="M79.531 3.672V2.656a1.875 1.875 0 00-3.75 0V7.67a1.875 1.875 0 003.75 0V3.672zm12.334 0V2.656a1.875 1.875 0 10-3.75 0V7.67a1.875 1.875 0 003.75 0V3.672zm12.334 0V2.656a1.875 1.875 0 00-3.75 0V7.67a1.875 1.875 0 103.75 0V3.672z" fill="#fff"/><path fill-rule="evenodd" clip-rule="evenodd" d="M90 24.134a3.461 3.461 0 110-6.922 3.461 3.461 0 010 6.922zm11.538 0a3.462 3.462 0 110-6.923 3.462 3.462 0 010 6.924zM75 31.538a3.461 3.461 0 106.923 0 3.461 3.461 0 00-6.923 0zM101.538 35a3.462 3.462 0 110-6.923 3.462 3.462 0 010 6.923zm-15-3.462a3.461 3.461 0 106.923 0 3.461 3.461 0 00-6.923 0z" fill="#fff"/><path d="M78.462 24.134a3.461 3.461 0 110-6.922 3.461 3.461 0 010 6.922z" fill="#FFE121"/><path fill-rule="evenodd" clip-rule="evenodd" d="M104.98 4.219h2.676A2.346 2.346 0 01110 6.562v31.094A2.346 2.346 0 01107.656 40H87.838a.781.781 0 010-1.563h19.818c.431 0 .782-.35.782-.78V6.562a.783.783 0 00-.782-.782h-2.676v1.89a2.66 2.66 0 01-2.656 2.657 2.66 2.66 0 01-2.656-2.657V5.781h-7.022V7.67a2.66 2.66 0 01-2.656 2.657 2.66 2.66 0 01-2.656-2.657V5.781h-7.022V7.67a2.66 2.66 0 01-2.656 2.657A2.66 2.66 0 0175 7.669V5.781h-2.656a.782.782 0 00-.781.782v6.406h31.406a.781.781 0 010 1.562H71.563v23.125c0 .431.35.782.78.782h9.245a.781.781 0 110 1.562h-9.244A2.346 2.346 0 0170 37.656V6.563a2.346 2.346 0 012.344-2.344H75V2.656A2.66 2.66 0 0177.656 0a2.66 2.66 0 012.656 2.656V4.22h7.022V2.656A2.66 2.66 0 0189.99 0a2.66 2.66 0 012.656 2.656V4.22h7.022V2.656A2.66 2.66 0 01102.324 0a2.66 2.66 0 012.656 2.656V4.22zM77.656 8.763c.603 0 1.094-.49 1.094-1.094V2.656a1.095 1.095 0 00-2.188 0V7.67c0 .603.491 1.094 1.094 1.094zM91.084 7.67a1.095 1.095 0 01-2.188 0V2.656a1.095 1.095 0 012.188 0V7.67zm11.24 1.094c.603 0 1.094-.49 1.094-1.094V2.656c0-.603-.491-1.094-1.094-1.094-.603 0-1.094.491-1.094 1.094V7.67c0 .603.491 1.094 1.094 1.094z" fill="#004D61"/><path d="M77.293 16.594a4.26 4.26 0 00-3.074 4.079 4.248 4.248 0 004.243 4.243 4.237 4.237 0 004.175-3.485.781.781 0 00-1.538-.278 2.677 2.677 0 01-2.637 2.2 2.683 2.683 0 01-2.68-2.68c0-1.19.798-2.25 1.94-2.577a.781.781 0 10-.43-1.502z" fill="#004D61"/><path fill-rule="evenodd" clip-rule="evenodd" d="M97.296 20.673a4.248 4.248 0 014.242-4.243 4.247 4.247 0 014.243 4.243 4.248 4.248 0 01-4.243 4.243 4.248 4.248 0 01-4.242-4.243zm1.562 0a2.683 2.683 0 002.68 2.68 2.684 2.684 0 002.681-2.68 2.684 2.684 0 00-2.681-2.68 2.683 2.683 0 00-2.68 2.68zm-4.615 0A4.248 4.248 0 0190 24.916a4.248 4.248 0 01-4.243-4.243A4.248 4.248 0 0190 16.43a4.247 4.247 0 014.243 4.243zm-1.563 0a2.683 2.683 0 00-2.68-2.68 2.683 2.683 0 00-2.68 2.68 2.684 2.684 0 002.68 2.68 2.684 2.684 0 002.68-2.68zm-9.976 10.865a4.248 4.248 0 01-4.242 4.243 4.248 4.248 0 01-4.243-4.243 4.248 4.248 0 014.243-4.242 4.248 4.248 0 014.242 4.242zm-1.562 0a2.683 2.683 0 00-2.68-2.68 2.683 2.683 0 00-2.68 2.68 2.683 2.683 0 002.68 2.68 2.683 2.683 0 002.68-2.68zm24.639 0a4.247 4.247 0 01-4.243 4.243 4.248 4.248 0 01-4.242-4.243 4.248 4.248 0 014.242-4.242 4.248 4.248 0 014.243 4.242zm-1.562 0a2.684 2.684 0 00-2.681-2.68 2.683 2.683 0 00-2.68 2.68 2.683 2.683 0 002.68 2.68 2.684 2.684 0 002.681-2.68zM90 27.296a4.248 4.248 0 014.243 4.242A4.248 4.248 0 0190 35.781a4.248 4.248 0 01-4.243-4.243A4.248 4.248 0 0190 27.296zm0 1.562a2.683 2.683 0 00-2.68 2.68 2.683 2.683 0 002.68 2.68 2.683 2.683 0 002.68-2.68 2.683 2.683 0 00-2.68-2.68z" fill="#004D61"/><path d="M84.713 38.438a.786.786 0 00-.781.781.786.786 0 00.781.781.783.783 0 00.552-1.334.787.787 0 00-.552-.229zm21.933-24.136a.789.789 0 00.229-.552.789.789 0 00-.229-.552.787.787 0 00-.552-.23.79.79 0 00-.553.23.787.787 0 00-.229.552c0 .205.084.407.229.552a.79.79 0 00.553.23.787.787 0 00.552-.23zm-29.568 5.301a.781.781 0 000 1.105l.862.862a.78.78 0 001.105 0l3.306-3.307a.782.782 0 00-1.105-1.105l-2.754 2.754-.309-.309a.781.781 0 00-1.105 0z" fill="#004D61"/><path d="M246.647 30.193h-33.294a1.578 1.578 0 01-1.578-1.578V6.209c0-.872.707-1.578 1.578-1.578h33.294c.871 0 1.578.706 1.578 1.578v22.406c0 .872-.707 1.578-1.578 1.578z" fill="#fff"/><path d="M214.142 7.313h31.716V27.51h-31.716V7.313z" fill="#fff"/><path d="M219.744 12.205h20.512v3.944h-20.512v-3.944zm0 7.2h20.512v3.944h-20.512v-3.944z" fill="#64B564"/><path d="M247.831 34.926h-35.662a1.577 1.577 0 01-1.577-1.577V31.77c0-.872.706-1.578 1.577-1.578h35.662c.871 0 1.577.706 1.577 1.578v1.578c0 .871-.706 1.578-1.577 1.578z" fill="#fff"/><path fill-rule="evenodd" clip-rule="evenodd" d="M248.817 28.615c0 .4-.11.776-.3 1.098A2.172 2.172 0 01250 31.771v1.578c0 1.196-.973 2.17-2.169 2.17h-25.124a.592.592 0 110-1.184h25.124a.987.987 0 00.986-.986V31.77a.988.988 0 00-.986-.986h-35.662a.987.987 0 00-.986.986v1.578c0 .543.443.986.986.986h7.774a.592.592 0 010 1.183h-7.774a2.172 2.172 0 01-2.169-2.17V31.77c0-.957.622-1.77 1.483-2.058-.19-.322-.3-.697-.3-1.098V6.209c0-1.196.974-2.17 2.17-2.17h33.294c1.196 0 2.17.973 2.17 2.17v9.822a.592.592 0 01-1.184 0V6.21a.987.987 0 00-.986-.986h-33.294a.987.987 0 00-.986.986v22.406c0 .544.442.986.986.986h33.294a.987.987 0 00.986-.986v-9.822a.592.592 0 011.184 0v9.822zm-7.969-12.466v-3.944a.592.592 0 00-.592-.592h-20.512a.592.592 0 00-.592.592v3.944c0 .327.265.592.592.592h20.512a.592.592 0 00.592-.592zm-1.183-.591h-19.33v-2.762h19.33v2.762zm1.183 3.847v3.944a.592.592 0 01-.592.592h-20.512a.592.592 0 01-.592-.592v-3.944c0-.327.265-.592.592-.592h20.512c.327 0 .592.265.592.592zm-20.513 3.353h19.33v-2.762h-19.33v2.762zm-6.785-10.264a.592.592 0 011.184 0v14.425h30.532V7.905h-30.532v1.811a.592.592 0 01-1.184 0V7.313c0-.327.265-.591.592-.591h31.716c.327 0 .592.264.592.591V27.51a.592.592 0 01-.592.592h-31.716a.592.592 0 01-.592-.592V12.494z" fill="#004D61"/></svg>