<svg width="16" height="16" viewBox="0 0 16 16" fill="none" xmlns="http://www.w3.org/2000/svg">
<path fill-rule="evenodd" clip-rule="evenodd" d="M15.1372 1.19485C14.8769 0.935049 14.4555 0.935049 14.1952 1.19485L11.4899 3.90013C10.417 3.32089 9.2192 3.01176 8 2.99948C3.2861 2.99948 0.230166 7.77471 0.102168 7.97804C-0.0340561 8.19486 -0.0340561 8.47054 0.102168 8.68736C0.975126 9.99014 2.0718 11.1281 3.34143 12.0486L1.5288 13.8613C1.35139 14.0276 1.27865 14.2774 1.33903 14.513C1.39941 14.7486 1.58331 14.9327 1.81887 14.9932C2.05444 15.0538 2.30429 14.9812 2.47078 14.8039L15.1372 2.1375C15.3974 1.87717 15.3974 1.45518 15.1372 1.19485ZM5.33339 8.3327C5.33339 6.85997 6.52727 5.66609 8 5.66609C8.47368 5.66859 8.93761 5.80094 9.3413 6.04875L5.71605 9.67334C5.46864 9.26971 5.33631 8.80611 5.33339 8.3327ZM13.7099 5.45076C14.5431 6.19732 15.2783 7.04652 15.8978 7.97804C16.0341 8.19486 16.0341 8.47054 15.8978 8.68736C15.7698 8.89069 12.7139 13.6659 8 13.6659C7.26747 13.6613 6.54003 13.5437 5.84338 13.3173L13.7099 5.45076Z" fill="#DDE3E8"/>
</svg>
