<svg width="16" height="16" viewBox="0 0 16 16" fill="none" xmlns="http://www.w3.org/2000/svg">
<path fill-rule="evenodd" clip-rule="evenodd" d="M8 2.36377C4.36364 2.36377 1.25818 4.62559 0 7.81832C1.25818 11.011 4.36364 13.2729 8 13.2729C11.6364 13.2729 14.7418 11.011 16 7.81832C14.7418 4.62559 11.6364 2.36377 8 2.36377ZM8 11.4547C5.99273 11.4547 4.36364 9.82559 4.36364 7.81832C4.36364 5.81104 5.99273 4.18195 8 4.18195C10.0073 4.18195 11.6364 5.81104 11.6364 7.81832C11.6364 9.82559 10.0073 11.4547 8 11.4547ZM8 5.6365C6.79273 5.6365 5.81818 6.61104 5.81818 7.81832C5.81818 9.02559 6.79273 10.0001 8 10.0001C9.20727 10.0001 10.1818 9.02559 10.1818 7.81832C10.1818 6.61104 9.20727 5.6365 8 5.6365Z" fill="#DDE3E8"/>
</svg>
