<svg width="475" height="280" fill="none" xmlns="http://www.w3.org/2000/svg"><path d="M161.346 274.791c-39.147-13.217-73.133-46.07-80.182-86.853-6.923-40.783 18.755-86.727 59.161-95.538 19.133-4.154 39.776-.504 58.028-7.427 34.363-13.216 46.069-58.027 77.915-76.657 30.588-18 72.629-5.035 95.538 22.154 22.784 27.189 29.455 64.825 28.07 100.321-2.014 52.112-24.167 108.378-71.496 130.531-40.028 18.504-124.237 23.791-167.034 13.469zm-3.583-253.007c-6.042 2.014-11.077 6.923-13.343 12.965-2.14 6.042-1.511 12.965 1.636 18.504 6.168 10.699 22.028 14.098 32.098 6.923 10.07-7.175 11.958-23.287 3.902-32.602-8.056-9.314-24.293-9.692-32.853-.88" fill="#E9FADD"/><path fill-rule="evenodd" clip-rule="evenodd" d="M87.878 176.274c-3.615.551-7.118 3.445-18.838 3.511-4.806.031-8.215-.484-10.71-.994-3.587-.735-5.288-1.471-6.537-.602 0 0-10.284 49.143-7.945 53.984 2.34 4.841 54.05 3.137 56.494.164 2.434-2.958-8.735-56.061-12.406-56.067-.02 0-.04 0-.058.004z" fill="#FFE121"/><path opacity=".5" fill-rule="evenodd" clip-rule="evenodd" d="M73.712 179.58c-1.634 1.168-2.745 2.743-2.773 4.88-.115 8.409 13.426 29.903 3.663 40.316-8.433 8.989-23.463 11.107-31.082 3.64-.059 1.832.033 3.149.328 3.757 2.34 4.841 54.05 3.137 56.494.164 2.206-2.683-6.785-46.658-11.212-54.773l-1.252-1.29c-3.079.471-6.096 2.634-14.166 3.306z" fill="#FA2"/><path fill-rule="evenodd" clip-rule="evenodd" d="M52.456 173.389c-6.645 2.614-13.805-1.389-17.193 4.878-3.39 6.264-2.625 16.19-.52 16.219 2.103.028-1.183-1.518.341-3 1.52-1.481 5.833-9.237 12.43-7.946 3.22.633 7.69-.649 11.623-1.934 4.117-1.342 7.647-2.684 8.559-1.835 1.78 1.663 1.663-1.598 1.663-1.598s-7.405-5.343-13.709-5.343c-1.114 0-2.194.166-3.194.559z" fill="#64B564"/><path fill-rule="evenodd" clip-rule="evenodd" d="M18.64 163.017C1.137 168.489.068 180.795 0 185.902c-.07 5.107 9.143 12.746 7.097 8.512-2.047-4.237 1.657-11.398 15.184-11.816 13.529-.418 16.356-9.395 20.029-14.455 3.677-5.058 14.168-3.114 14.168-3.114s3.958-3.853-1.352-11.136c-1.254-1.721-2.975-2.426-5.103-2.426-6.88.002-18.014 7.369-31.383 11.55zm8.133-23.632l3.809 1.229c-.283-.102-1.254-.524-2-1.805-.879-1.514 8.223-8.002 11.41.756 3.188 8.758 16.107 8.932 16.107 8.932 4.666-11.657-1.49-23.159-11.657-26.902a6.818 6.818 0 00-2.386-.436c-8.932.002-15.283 18.226-15.283 18.226z" fill="#64B564"/><path fill-rule="evenodd" clip-rule="evenodd" d="M48.26 93.441c-1.943.703-3.928 1.408-5.858 1.379-5.107-.07-9.7 6.181-8.807 6.793.893.615 6.26 3.692 6.88 2.497.616-1.194-2.103-.33-4.473-2.763-2.37-2.436 24.42-5.681 20.545 14.1-3.873 19.781 7.762 25.95 7.762 25.95 18.925-21.683-3-44.817-7.161-48.181-1.043-.842-2.17-1.155-3.352-1.155-1.751 0-3.624.69-5.535 1.38z" fill="#64B564"/><path fill-rule="evenodd" clip-rule="evenodd" d="M58.248 78.507c-.94 25.23 17.02 52.52 17.02 52.52 24.054-23.115 14-57.51 10.265-70.183-3.735-12.67-.09-15.624 1.751-18.306.762-1.112 1.811-.145 2.545.822 1.03 1.362 1.44 2.72-.43-1.694C88.916 40.532 87.9 40 86.515 40c-7.84 0-27.467 17.065-28.268 38.507zm68.691 9.343c-3.344 2.66-12.648 1.935-27.793 10.746-15.144 8.808-7.699 35.954-7.699 35.954 17.716 1.143 37.784-38.554 41.725-40.906 3.938-2.35 9.244 5.234 7.976 10.026-1.266 4.791-3.028 1.762-3.028 1.762s.549 3.914 3.269 2.749c2.719-1.166 6.539-17.04.633-24.632-1.655-2.127-3.304-2.934-4.894-2.934-4.087 0-7.784 5.322-10.189 7.236z" fill="#64B564"/><path fill-rule="evenodd" clip-rule="evenodd" d="M131.868 125.961c-3.516.549-8.281 1.096-15.068.518-21.012-1.787-17.191 26.812-17.191 26.812 3.288-1.463 7.01-.08 10.613 1.303 5.009 1.919 9.784 3.841 12.833-1.885 5.242-9.846 10.984-12.173 14.288-12.13 3.307.047 4.899 12.302 1.316 13.845-3.583 1.538-1.477-1.824-1.477-1.824s-1.139.885-1.906 2.002c-.766 1.116-1.159 2.462.33 3.384 2.979 1.844 14.279-11.525 9.055-25.12-2.36-6.137-3.985-7.67-6.992-7.67-1.502 0-3.347.383-5.801.765zm-48.904 51.798s10.35-3.515 17.861-3.413c7.513.1 13.912-6.424 13.632-7.93-.281-1.508 6.643-2.315 5.144-2.637-.56-.116-1.414.218-2.944.549-2.583.566-7.103 1.129-15.387-.495a14.287 14.287 0 00-2.745-.275c-11.159.002-15.561 14.201-15.561 14.201z" fill="#64B564"/><path fill-rule="evenodd" clip-rule="evenodd" d="M77.847 51.427s-9.798 13.39-7.292 28.147c2.505 14.76 7.549 89.007 2.271 100.078l2.68-.252s4.3-28.404.36-53.7c-2.425-15.569-6.69-60.794 1.981-74.273z" fill="#4D8850"/><path fill-rule="evenodd" clip-rule="evenodd" d="M49.23 95.365s11.456 2.86 11.968 15.037c.51 12.177 3.112 30.995 3.112 30.995s5.068 37.141 6.303 38.36l2.215-.105s-6.218-27.932-7.035-34.141c-.817-6.21-3.476-26.194-3.63-31.491-.154-5.298.322-15.434-12.933-18.655zm92.231-3.711s-5.758-7.516-11.468-1.958c-5.709 5.558-12.318 10.878-23.23 17.941-10.915 7.064-28.806 71.399-28.806 71.399l-2.452.363s16.799-52.575 24.663-67.568c0 0 2.077-3.577 6.168-6.003 4.089-2.425 14.187-7.473 17.971-12.265 3.783-4.795 10.173-10.57 17.154-1.909z" fill="#4D8850"/><path fill-rule="evenodd" clip-rule="evenodd" d="M110.47 166.738s-6.8 2.837-13.339 3.087c-6.54.25-12.658 6.725-14.168 7.934-1.507 1.207-5.006 1.278-5.006 1.278l.284-1.006s4.356-.065 6.65-3.019c2.292-2.954 6.955-6.048 12.984-5.966 6.027.082 12.595-2.308 12.595-2.308z" fill="#4D8850"/><path fill-rule="evenodd" clip-rule="evenodd" d="M142.675 135.28s-6.332-6.846-9.514-4.861c-3.181 1.987-9.331 6.636-15.667 8.578-6.337 1.944-15.023 10.953-22.918 19.75-7.895 8.795-16.618 20.289-16.618 20.289l-1.118-.356s23.618-29.883 31.923-35.631c8.305-5.749 13.041-6.021 17.257-9.459 4.216-3.435 8.114-8.454 16.655 1.69zm-108.583-3.834s5.265-6.015 9.483-1.225c4.218 4.791 15.036 19.983 25.466 49.565l1.573-.029S57.792 145.515 48.7 134.572c-9.093-10.94-10.39-8.479-14.608-3.126z" fill="#4D8850"/><path fill-rule="evenodd" clip-rule="evenodd" d="M4.06 185.581s3.977-10.764 13.466-12.437c9.489-1.676 11.298-2.102 17.456-7.428 6.158-5.327 16.384-11.724 23.87 1.45 7.485 13.172 10.187 12.619 10.187 12.619l.992-.018s-4.175-2.741-6.605-6.529c-2.427-3.79-7.83-15.28-14.82-15.076-6.989.205-16.13 9.473-19.305 10.858-3.173 1.385-15.348 1.67-19.476 6.949-4.128 5.277-5.765 9.612-5.765 9.612z" fill="#4D8850"/><path fill-rule="evenodd" clip-rule="evenodd" d="M37.557 183.556s-.59-6.432 6.49-4.984c7.082 1.448 10.943-.864 13.322-1.735 2.378-.869 11.67 2.948 11.67 2.948l1.576-.027s-11.636-5.301-14.365-3.538c-2.728 1.766-6.2 2.997-9.122 2.28-2.92-.712-9.272-3.128-9.571 5.056z" fill="#4D8850"/><path fill-rule="evenodd" clip-rule="evenodd" d="M377.945 65.027c-5.869 9.134-31.949 52.852-59.983 65.902-28.038 13.051-43.683 19.576-48.9 22.838-5.218 3.263-20.863 18.922-22.168 24.145-1.304 5.218-10.431 40.453 2.609 62.638 13.039 22.185 66.218 27.766 128.803 21.823 79.313-7.534 73.313-19.212 90.59-74.022 17.279-54.81-14.198-112.832-19.234-118.104-10.274-10.76-25.728-14.523-39.719-14.523-15.345 0-28.93 4.524-31.998 9.303z" fill="#B1DAB1"/><path opacity=".5" fill-rule="evenodd" clip-rule="evenodd" d="M394.004 137.867c-24.674 27.343-31.706 38.736-37.251 40.045-5.541 1.303-33.575 7.503-33.575 7.503s-8.803 0-15.651-4.567c-6.844-4.569-25.1-1.633-29.013-6.201-3.911-4.567-9.452-19.577-5.214-23.164.009-.007.016-.015.025-.024-1.827.909-3.247 1.673-4.263 2.308-5.218 3.263-20.863 18.922-22.169 24.145-.085.345-.209.834-.357 1.432 2.773-2.483 6.374-4.609 10.464-4.043 9.453 1.302 14.998 3.914 20.212 3.914 5.215 0 23.471-.327 30.644 6.851 7.17 7.179 17.277 2.936 22.495 2.285 5.214-.653 31.947-5.547 34.878-6.852 2.934-1.305 25.358-39.048 38.686-44.59 15.368-6.387 30.735-5.64 39.018-4.894 5.159.465 7.57.931 5.52-.332-4.029-2.474-13.716-5.217-24.338-5.217-10.692 0-22.329 2.777-30.111 11.401z" fill="#64B564"/><path opacity=".5" fill-rule="evenodd" clip-rule="evenodd" d="M436.992 61.279c-1.104 8.798-.729 40.696 9.463 53.989 12.502 16.315 14.479 37.848-7.896 58.728-22.375 20.88-71.074 16.313-95.422 45.674-23.326 28.131-67.185 48.466-96.865 13.981.41 1.117.869 2.21 1.364 3.286l.038.08c.069.148.137.296.21.444a39.266 39.266 0 001.619 3.089c13.039 22.185 66.218 27.766 128.803 21.823 79.313-7.534 73.313-19.212 90.59-74.022a101.549 101.549 0 001.562-5.5c.09-.345.157-.688.241-1.033.377-1.541.736-3.085 1.043-4.629.045-.23.082-.456.126-.684.324-1.695.619-3.389.866-5.08l.031-.226c.264-1.834.485-3.668.663-5.496v-.002l.542-8.206c.045-1.531.056-3.054.049-4.571-.004-.527-.018-1.053-.026-1.578a145.561 145.561 0 00-.082-3.044 141.514 141.514 0 00-.266-4.651c-.042-.555-.078-1.113-.126-1.664-.093-1.108-.204-2.21-.32-3.308-.041-.378-.075-.763-.119-1.141a145.926 145.926 0 00-.56-4.297c-.065-.454-.138-.901-.209-1.354-.152-.994-.307-1.985-.476-2.965-.095-.545-.195-1.084-.292-1.624a163.21 163.21 0 00-.511-2.664c-.105-.531-.213-1.062-.322-1.587a161.24 161.24 0 00-.62-2.81c-.095-.426-.188-.854-.286-1.278a182.072 182.072 0 00-.969-3.899c-.083-.319-.173-.63-.257-.947-.26-.987-.528-1.965-.802-2.927-.137-.472-.273-.934-.41-1.401a167.236 167.236 0 00-1.16-3.799c-.251-.792-.508-1.573-.765-2.347-.135-.407-.27-.821-.407-1.221a167.999 167.999 0 00-1.242-3.529 166.28 166.28 0 00-1.163-3.109c-.142-.372-.284-.728-.428-1.091a182.69 182.69 0 00-.817-2.05c-.155-.386-.314-.767-.469-1.145-.268-.64-.534-1.27-.798-1.889-.146-.34-.294-.69-.44-1.027a181.27 181.27 0 00-.937-2.098c-.089-.203-.184-.413-.273-.61-.396-.865-.788-1.697-1.174-2.501-.117-.24-.228-.466-.341-.701-.276-.562-.547-1.115-.812-1.646l-.41-.805a137.56 137.56 0 00-.718-1.38c-.128-.242-.254-.483-.378-.714a98.676 98.676 0 00-.742-1.354 52.69 52.69 0 01-.281-.51c-.326-.576-.64-1.12-.939-1.623l-.176-.29a79.773 79.773 0 00-.686-1.114c-.091-.147-.18-.282-.27-.423a33.07 33.07 0 00-.751-1.12c-.155-.221-.299-.42-.438-.6a8.461 8.461 0 00-.689-.841 38.137 38.137 0 00-2.611-2.47c-.218-.191-.445-.374-.667-.56a40.751 40.751 0 00-2.425-1.874c-.126-.09-.253-.188-.381-.277a45.759 45.759 0 00-6.586-3.788z" fill="#64B564"/><path fill-rule="evenodd" clip-rule="evenodd" d="M297.974 109.889c-2.232 10.089-6.021 36.282-6.021 36.282l70.986 44.034s55.278-80.006 33.76-105.161c-14.181-16.578-21.916-22.389-38.398-22.389-16.482 0-54.619 21.405-60.327 47.234z" fill="#FFE121"/><path fill-rule="evenodd" clip-rule="evenodd" d="M289.196 147.867c-5.741-.797-38.629 19.275-43.985 23.342-5.173 3.927-22.335 23.416-47.443 48.705l26.145 3.176 100.361-66.568s-27.09-7.547-35.078-8.655z" fill="#4D8850"/><path fill-rule="evenodd" clip-rule="evenodd" d="M184.756 222.787s-11.536 1.467-21.777-.259c-10.241-1.723-25.775-12.567-27.272-10.197-1.499 2.371-2.813 12.518-1.603 19.171 1.211 6.654 19.081 7.968 26.961 12.449 7.883 4.48 16.338.389 18.181-.937 1.843-1.327 13.674-5.819 13.674-5.819l-8.164-14.408z" fill="#004C61"/><path fill-rule="evenodd" clip-rule="evenodd" d="M145.624 236.996s-2.318 2.571-1.306 6.667c1.014 4.095.573 8.638 3.452 10.445 2.879 1.808 13.652 2.879 18.808 10.034 5.155 7.155 11.164 7.928 13.686 6.173 2.518-1.754 9.287-15.123 17.601-23.307 8.311-8.182 11.461-8.782 11.461-8.782l-17.979-3.808s-18.725 11.439-24.313 10.488c-14.145-2.409-19.882-13.214-21.41-7.91z" fill="#003645"/><path fill-rule="evenodd" clip-rule="evenodd" d="M320.002 155.754c-14.486 3.274-50.059 18.131-55.182 22.006-5.122 3.876-53.655 32.405-82.345 41.421 0 0-.412 17.309 8.29 21.59 0 0 44.38-1.847 79.22-29.239 1.548-1.217 3.402-1.975 5.364-2.117 15.39-1.113 83.102-2.7 90.048-22.887 4.079-11.855-8.483-32.144-33.65-32.144-3.653 0-7.572.427-11.745 1.37z" fill="#64B564"/><path fill-rule="evenodd" clip-rule="evenodd" d="M317.568 123.302l1.067.307s.665-14.523 7.499-28.427c0 0-7.538 9.521-8.566 28.12z" fill="#F99D48"/><path fill-rule="evenodd" clip-rule="evenodd" d="M318.157 138.035c-2.624 2.452 7.446 16.386 7.446 16.386s12.982 3.571 19.563 1.189l7.654-.164-1.208-8.605-8.757-1.776s-17.303-7.435-23.092-7.437c-.749 0-1.305.126-1.606.407z" fill="#FBA1A2"/><path fill-rule="evenodd" clip-rule="evenodd" d="M378.351 102.444c8.012 33.642-29.775 40.999-29.775 40.999l.636 13.47s25.87 1.354 46.265-15.052c20.616-16.586 2.823-54.832 2.823-54.832l-19.949 15.415z" fill="#FA2"/><path fill-rule="evenodd" clip-rule="evenodd" d="M252.249 96.74a1.659 1.659 0 00-1.657 1.907c1.356 9.195 8.806 48.949 11.707 54.038 1.954 3.434 86.823 6.941 89.078 5.445l2.256-1.498-27.143-4.983-13.984-48.123a2.683 2.683 0 00-2.312-1.929c-8.972-.886-48.783-4.777-57.945-4.857z" fill="#004C61"/><path fill-rule="evenodd" clip-rule="evenodd" d="M287.494 128.819a4.01 4.01 0 11-7.99-.719 4.013 4.013 0 014.353-3.639 4.016 4.016 0 013.637 4.358z" fill="#fff"/><path fill-rule="evenodd" clip-rule="evenodd" d="M253.292 99.2s55.569 5.198 56.124 6.097c.556.9 10.614 40.248 10.614 40.248s-11.78-39.078-13.043-39.191c-1.264-.115-53.695-7.155-53.695-7.155z" fill="#E5F7FF"/><path fill-rule="evenodd" clip-rule="evenodd" d="M403.581 253.892c-4.287 6.376-4.903 10.611 1.01 9.666 5.914-.942 14.916-5.405 14.916-5.405s-6.89-6.297-12.021-6.295c-1.537 0-2.917.565-3.905 2.034z" fill="#AA6901"/><path fill-rule="evenodd" clip-rule="evenodd" d="M353.837 264.459c2.684 2.573 13.346 3.638 14.006 1.783 1.563-4.407-9.34-11.507-9.34-11.507-.006-.013-.017-.02-.033-.02-.552 0-7.235 7.246-4.633 9.744z" fill="#EA9712"/><path fill-rule="evenodd" clip-rule="evenodd" d="M379.973 236.609c-2.618 2.248-6.943.728-6.943.728s3.125 27.989 14.162 26.531c11.034-1.454 18.467-10.193 18.467-10.193s1.962 6.16 10.254 7.881c8.298 1.721 22.238-3.379 26.971-12.654 4.732-9.277 3.217-27.995-21.045-31.381a39.353 39.353 0 00-5.434-.382c-21.056.002-34.018 17.395-36.432 19.47z" fill="#FA2"/><path fill-rule="evenodd" clip-rule="evenodd" d="M396.924 241.42s-2.925 1.403-3.439 2.776c-.514 1.368 4.458 11.165 3.34 14.136-1.114 2.97-14.932 9.243-24.453 6.289-9.519-2.954-13.788-6.019-14.834-11.835-1.047-5.819 1.754-10.501 8.05-15.331 6.293-4.828 2.685-5.768 2.685-5.768s4.19.221 5.466 4.038c1.277 3.818 14.289 6.626 15.547 6.055 1.254-.57 4.682-1.369 7.638-.36z" fill="#FFC521"/><path fill-rule="evenodd" clip-rule="evenodd" d="M399.788 257.332c-5.79 3.569-16.294 7.14-34.419 4.624-2.58-.356-4.11 7.559 6.075 8.468 10.183.912 31.985-8.72 34.215-16.749.358-1.283.544-1.81.451-1.81-.214 0-1.884 2.733-6.322 5.467z" fill="#FA2"/><path fill-rule="evenodd" clip-rule="evenodd" d="M444.941 237.556c-.786 3.724-4.02 23.921-28.198 22.995-12.535-.48-26.807-.918-25.972 6.07.486 4.073 33.425 8.965 46.379-2.905 12.262-11.229 8.345-26.221 7.833-26.222-.02 0-.035.02-.042.062zm-53.149 7.884c.796 3.703 6.153 9.558 3.008 13.842-1.677 2.285-.368 1.488 1.203.13.401-.389.702-.755.823-1.08 1.117-2.973-3.855-12.766-3.341-14.14.515-1.368 3.439-2.772 3.439-2.772a8.26 8.26 0 00-.908-.24c-2.024.614-4.737 1.894-4.224 4.26zm-18.924-9.671c.478 2.243 3.4 3.86 7.029 4.98 3.624 1.118 8.894 1.186 8.894 1.186l-.09-.091c-2.815.014-13.795-2.624-14.961-6.118-.832-2.488-2.887-3.436-4.223-3.805 1.351.602 2.994 2.186 3.351 3.848zm-8.691 21.424c1.327 6.392 8.695 3.423 8.695 3.423s-5.284 1.624-7.089-1.177c-1.803-2.799.811-4.709.811-4.709s1.189-2.316-.404-.341c-1.596 1.974-3.446 2.589-5.246 1.24-1.763-1.324-.968-3.616-.937-3.706-1.871 5.133 4.17 5.27 4.17 5.27z" fill="#EA9712"/><path fill-rule="evenodd" clip-rule="evenodd" d="M366.016 251.713c-.612.435.265 1.219.177 1.659-.091.438-.312.385.139 1.345 0 0 1.221.091 1.387-.144.163-.237.655-.259 1.173-.028.517.234 1.156.259 1.176-.122.022-.352-2.949-2.757-3.873-2.757a.308.308 0 00-.179.047zm8.995.01s-.5 3.602 4.698 1.942c0 0-6.403 2.735-4.698-1.942zm-10.998-6.612s-2.097 4.134 3.427 3.45c0 0-6.47 2.053-3.427-3.45z" fill="#AA6901"/><path fill-rule="evenodd" clip-rule="evenodd" d="M347.389 66.391s-4.886 1.968-4.881 4.991c.006 3.32 4.794 4.467 9.574 4.476h.102a31.648 31.648 0 003.298-.178c6.974-.743 12.635-5.793 12.662-9.495v-.058a3.143 3.143 0 00-.266-1.267c-.707-1.581-3.043-2.157-5.898-2.157-6.117 0-14.618 2.642-14.591 3.688z" fill="#FA2"/><path fill-rule="evenodd" clip-rule="evenodd" d="M314.209 26.969s8.552 36.938 16.776 38.49c6.556 1.239 11.93-2.7 14.579-5.324 1.369 2.51.64 8.339 1.193 8.481.524.135 5.876 3.416 13.659-2.33a1.902 1.902 0 00.56-2.426c-4.456-8.277-5.783-14.774-5.783-14.774s7.579-15.508 4.026-23.17c-3.553-7.662-21.98-23.154-45.01 1.053z" fill="#FBA1A2"/><path fill-rule="evenodd" clip-rule="evenodd" d="M325.494 3.728c-6.129 2.179-12.62 4.357-19.054 3.395.761 5.849 4.459 8.78 4.459 8.78s-1.919 1.068-5.392 1.184c4.126 22.302 39.161 5.129 39.161 5.129-1.148 5.768 3.112 12.807 3.112 12.807.579-3.709 6.308-9.31 9.19-4.02 2.883 5.289-1.87 10.118-2.433 11.215-.562 1.095 1.347 6.47 1.347 6.47s9.797-11.9 10.046-28.95c-2.259-15.829-12.15-10.803-12.15-10.803s-2.451-7.578-12.303-8.741a14.27 14.27 0 00-1.663-.095c-4.361 0-9.215 1.815-14.32 3.63z" fill="#004C61"/><path fill-rule="evenodd" clip-rule="evenodd" d="M335.186 42.956c-.005 1.087.676 1.974 1.522 1.98.844.008 1.533-.867 1.539-1.954.004-1.088-.676-1.974-1.521-1.982h-.009c-.84 0-1.525.873-1.531 1.956zm-14 2c-.005 1.087.676 1.974 1.522 1.98.844.008 1.533-.867 1.539-1.954.004-1.088-.676-1.974-1.521-1.982h-.009c-.84 0-1.525.873-1.531 1.956z" fill="#003645"/><path d="M331.224 54.282c.679.003 1.428-.212 2.242-.634a.847.847 0 00-.778-1.504c-.925.48-1.583.554-1.982.302-.297-.188-.526-.581-.673-1.132a5.605 5.605 0 01-.177-1.483v-.03l-.401-7.095a.855.855 0 00-.88-.798.85.85 0 00-.812.895l.401 7.035c-.013.381.02.95.156 1.588.232 1.087.695 1.954 1.481 2.451.42.266.9.401 1.423.405l.003-.5-.003.5zm3.575 3.097c.152 0 .696-.073 1.247-.19a13.176 13.176 0 002.688-.874c2.563-1.157 4.469-3.041 5.303-5.806a.868.868 0 00-1.661-.504c-.674 2.231-2.217 3.76-4.331 4.723-1.294.589-2.617.876-3.275.915-.449.002-.834.386-.837.861a.869.869 0 00.863.875l.003-.5v.5z" fill="#C85D5E"/><path d="M328.337 35.046a.844.844 0 001.191-.132c.047-.056.153-.162.336-.314.312-.26.705-.522 1.184-.768 1.703-.876 3.991-1.325 6.945-1.105a.857.857 0 00.909-.78.85.85 0 00-.78-.912c-.547-.04-1.068-.06-1.568-.06-2.596.001-4.691.506-6.326 1.358-1.025.535-1.694 1.104-2.026 1.522a.847.847 0 00.135 1.191zm-12.203.269c-.431.18-.629.675-.4 1.09a.837.837 0 00.735.422.889.889 0 00.342-.067 10.494 10.494 0 014.818-.807 9.393 9.393 0 011.473.216c.259.06.456.12.523.145.403.152.872-.01 1.064-.395.213-.424-.008-.908-.443-1.072-.707-.266-1.859-.509-3.324-.509-1.565 0-3.177.3-4.788.977l.193.46-.193-.46z" fill="#003645"/><path fill-rule="evenodd" clip-rule="evenodd" d="M347.966 33.669l-1.035-1.296-4.036 3.524c-.099-.43-.204-.872-.317-1.334a.823.823 0 00-.791-.632c-2.991-.02-5.882.774-8.572 2.117-1.648.823-2.897 1.676-3.637 2.294a.845.845 0 00-.268.874c.037.134.098.337.175.583-.807.022-1.546.2-2.202.483a24.664 24.664 0 00-.088-.566.827.827 0 00-.63-.672c-.919-.203-2.338-.374-4.109-.341-2.888.054-5.723.675-8.306 2.046a.84.84 0 00-.423.911c1.056 5.112 1.824 7.151 2.998 8.284.718.694 2.029 1.056 3.586 1.067 2.379.015 4.831-.772 6.148-2.129 1.1-1.133 1.315-3.618 1.025-6.846.674-.392 1.553-.639 2.58-.552 1.158 3.128 2.458 5.327 3.98 5.845a5.675 5.675 0 001.786.279c3.083.02 6.906-1.927 7.642-3.964.454-1.258.429-2.853-.178-5.897l4.672-4.078zm-6.823 1.94c-2.285.085-4.539.703-6.694 1.706a20.316 20.316 0 00-3.4 1.987c.952 3.088 2.415 6.07 3.516 6.445 2.366.805 6.77-1.025 7.368-2.68.419-1.161.267-3.036-.79-7.457zm-23.289 13.124c1.149 1.11 5.772.693 7.437-1.023.797-.82.83-4.031.379-7.13a19.103 19.103 0 00-3.733-.175c-2.273.106-4.469.59-6.472 1.544.912 4.292 1.554 5.978 2.389 6.784z" fill="#fff"/></svg>